<?xml version="1.0" encoding="UTF-8"?>
<!-- Generated by Pixelmator Pro 3.6.13 -->
<svg width="95" height="107" viewBox="0 0 95 107" xmlns="http://www.w3.org/2000/svg">
    <path id="Path" fill="#092e3d" stroke="none" d="M 27.1 107 C 26.299999 107 25.6 106.700005 25.1 106.200005 C 24.5 105.600006 24.299999 104.700005 24.5 103.900002 L 27.700001 91.200005 C 8.5 82.100006 -2.6 61.299999 0.5 40.099998 C 3.6 19 21.200001 2 42.400002 -0.400002 C 56.200001 -1.900002 69.400002 2.300003 79.699997 11.400002 C 89.900002 20.5 95.800003 33.599998 95.800003 47.399998 C 95.800003 59.299999 91.400002 70.800003 83.5 79.600006 C 83 80.300003 68.699997 97.900002 27.799999 106.900002 L 27.799999 106.900002 C 27.5 106.900002 27.299999 107 27.1 107 Z"/>
    <path id="path1" fill="#ffffff" stroke="none" d="M 45.200001 47.799999 C 45.200001 46.5 46.299999 45.399998 47.599998 45.399998 C 48.900002 45.399998 50 46.5 50 47.799999 C 50 49.099998 48.900002 50.200001 47.599998 50.200001 C 46.299999 50.200001 45.200001 49.099998 45.200001 47.799999 M 41.400002 40.099998 C 43.099998 38.700005 45.400002 38 47.599998 38 C 53.200001 38 57.700001 42.400002 57.700001 47.899998 C 57.700001 53.299999 53.200001 57.799999 47.599998 57.799999 C 42 57.799999 37.5 53.399998 37.5 47.899998 C 37.599998 45.700001 38.200001 43.5 39.700001 41.800003 L 43.5 45.5 C 43.099998 46.299999 42.799999 47 42.799999 47.899998 C 42.799999 50.5 45 52.599998 47.599998 52.599998 C 50.299999 52.599998 52.400002 50.5 52.400002 47.899998 C 52.400002 45.299999 50.200001 43.200001 47.599998 43.200001 C 46.700001 43.200001 45.900002 43.399998 45.099998 43.899998 L 41.400002 40.099998 Z M 38.400002 37.099998 L 38.400002 33 C 41.200001 31.400002 44.400002 30.5 47.700001 30.5 C 57.5 30.5 65.400002 38.300003 65.400002 47.799999 C 65.400002 57.399998 57.5 65.100006 47.700001 65.100006 C 37.900002 65.100006 30 57.299999 30 47.799999 C 30.1 44.599998 30.9 41.5 32.599998 38.700005 L 36.799999 38.700005 L 38.099998 40 C 36.299999 42.200005 35.200001 44.899998 35.200001 47.799999 C 35.200001 54.599998 40.799999 60 47.700001 60 C 54.599998 60 60.200001 54.5 60.200001 47.799999 C 60.200001 41.099998 54.599998 35.599998 47.700001 35.599998 C 44.799999 35.700005 42 36.5 39.799999 38.400002 L 38.400002 37.099998 Z M 27.200001 31.700005 L 29.9 31.700005 C 30.6 31.700005 31.1 31.199997 31.1 30.5 L 31.1 27.800003 L 35.900002 32.5 L 35.900002 36.300003 L 32 36.300003 L 27.200001 31.700005 Z M 29.6 23.800003 C 29.1 23.900002 28.700001 24.400002 28.700001 24.900002 L 28.700001 29.300003 L 24.299999 29.300003 C 23.200001 29.300003 22.700001 30.599998 23.4 31.300003 L 30.200001 38 C 28.4 41.300003 27.5 44.099998 27.5 47.899998 C 27.6 54.299999 30.700001 60.5 36.200001 64.100006 L 30.6 72.5 C 30.200001 73 30.4 73.800003 30.9 74.100006 C 31.5 74.5 32.200001 74.300003 32.599998 73.800003 L 38.299999 65.300003 C 41.200001 66.800003 44.5 67.600006 47.700001 67.600006 C 51 67.600006 54.299999 66.899994 57.099998 65.300003 L 62.799999 73.800003 C 63.200001 74.300003 63.900002 74.5 64.5 74.100006 C 65.099998 73.699997 65.199997 73 64.800003 72.5 L 59.200001 64.100006 C 64.599998 60.5 67.800003 54.299999 67.900002 47.899998 C 67.800003 37.5 59.700001 28.800003 48.900002 28.199997 L 48.900002 25 C 48.900002 24.300003 48.400002 23.800003 47.700001 23.800003 C 47 23.800003 46.5 24.300003 46.5 25 L 46.5 28.199997 C 43.400002 28.5 40.299999 29.199997 37.599998 30.800003 L 30.799999 24.099998 C 30.6 23.900002 30.299999 23.800003 30 23.800003 C 29.799999 23.800003 29.700001 23.800003 29.6 23.800003"/>
</svg>
