<?xml version="1.0" encoding="UTF-8"?>
<!-- Generated by Pixelmator Pro 3.6.13 -->
<svg width="95" height="107" viewBox="0 0 95 107" xmlns="http://www.w3.org/2000/svg">
    <path id="Path" fill="#092e3d" stroke="none" d="M 27.1 107 C 26.299999 107 25.6 106.700005 25.1 106.200005 C 24.5 105.600006 24.299999 104.700005 24.5 103.900002 L 27.700001 91.200005 C 8.5 82.100006 -2.6 61.299999 0.5 40.099998 C 3.6 19 21.200001 2 42.400002 -0.400002 C 56.200001 -1.900002 69.400002 2.300003 79.699997 11.400002 C 89.900002 20.5 95.800003 33.599998 95.800003 47.399998 C 95.800003 59.299999 91.400002 70.800003 83.5 79.600006 C 83 80.300003 68.699997 97.900002 27.799999 106.900002 L 27.799999 106.900002 C 27.5 106.900002 27.299999 107 27.1 107 Z"/>
    <path id="path1" fill="#ffffff" stroke="none" d="M 62.5 61.700001 C 61.700001 61.700001 61 61.899998 60.400002 62.299999 L 53.299999 55.299999 C 54.299999 54.299999 55 53.099998 55.400002 51.799999 L 60 52.399998 C 60.099998 52.799999 60.299999 53.200001 60.599998 53.599998 C 61.599998 54.899998 63.400002 55.099998 64.699997 54.099998 C 65.300003 53.599998 65.699997 52.899998 65.800003 52.200001 C 65.900002 51.399998 65.699997 50.700001 65.199997 50 C 64.199997 48.700001 62.400002 48.5 61.099998 49.5 C 60.900002 49.700001 60.599998 49.899998 60.5 50.200001 L 55.799999 49.599998 C 55.799999 49.5 55.799999 49.5 55.799999 49.399998 C 55.799999 48.200001 55.599998 47.099998 55.099998 46 L 58.099998 43 C 60.200001 44.399998 63.099998 44.099998 65 42.300003 C 66 41.300003 66.599998 39.900002 66.599998 38.5 C 66.599998 37.099998 66 35.700005 65 34.700005 C 62.900002 32.599998 59.400002 32.599998 57.299999 34.700005 C 55.5 36.5 55.200001 39.300003 56.5 41.400002 L 53.900002 44 C 52.599998 42.400002 50.700001 41.400002 48.599998 41.099998 L 48.599998 28 C 51.099998 27.5 53 25.300003 53 22.699997 C 53 19.699997 50.599998 17.300003 47.599998 17.300003 C 44.599998 17.300003 42.099998 19.699997 42.099998 22.699997 C 42.099998 25.199997 43.900002 27.400002 46.299999 28 L 46.299999 41.099998 C 44.5 41.300003 42.700001 42.200005 41.400002 43.5 L 36.900002 39 C 37.099998 38.5 37.200001 38.099998 37.200001 37.599998 C 37.200001 35.700005 35.700001 34.200005 33.799999 34.200005 C 31.9 34.200005 30.4 35.700005 30.4 37.599998 C 30.4 39.5 31.9 41 33.799999 41 C 34.299999 41 34.900002 40.900002 35.299999 40.599998 L 40 45.299999 C 39.299999 46.599998 38.900002 48 38.900002 49.399998 C 38.900002 49.700001 38.900002 50 38.900002 50.299999 L 32.700001 52.200001 C 31.5 50 28.799999 48.899998 26.299999 49.700001 C 24.9 50.099998 23.799999 51.099998 23.1 52.399998 C 22.4 53.700001 22.299999 55.099998 22.700001 56.5 C 23.6 59.299999 26.700001 60.899998 29.5 60 C 31.9 59.200001 33.5 56.899998 33.299999 54.399998 L 39.400002 52.5 C 40.200001 54.599998 41.900002 56.299999 44 57.200001 L 43.099998 60.200001 C 42.700001 60.200001 42.200001 60.299999 41.799999 60.599998 C 41.099998 61 40.599998 61.599998 40.400002 62.399998 C 40.200001 63.099998 40.299999 63.899998 40.599998 64.600006 C 41.400002 66 43.200001 66.5 44.599998 65.800003 C 45.299999 65.399994 45.799999 64.800003 46 64.100006 C 46.200001 63.399998 46.099998 62.599998 45.799999 61.899998 C 45.700001 61.599998 45.5 61.399998 45.200001 61.200001 L 46.099998 58 C 47.900002 58.200001 49.700001 57.899998 51.299999 57 L 58.700001 64.399994 C 58.5 64.899994 58.400002 65.399994 58.400002 66 C 58.400002 68.199997 60.200001 69.899994 62.299999 69.899994 C 64.5 69.899994 66.199997 68.100006 66.199997 66 C 66.199997 63.899998 64.599998 61.700001 62.5 61.700001 Z M 62.400002 51.299999 C 62.5 51.200001 62.700001 51.200001 62.799999 51.200001 C 63 51.200001 63.200001 51.299999 63.299999 51.5 C 63.400002 51.599998 63.5 51.799999 63.400002 52 C 63.400002 52.200001 63.299999 52.299999 63.099998 52.399998 C 62.799999 52.599998 62.400002 52.599998 62.200001 52.299999 C 62.099998 52.200001 62 52 62.099998 51.799999 C 62.200001 51.599998 62.299999 51.399998 62.400002 51.299999 Z M 58.799999 36.300003 C 60 35.099998 62.099998 35.099998 63.299999 36.300003 C 63.900002 36.900002 64.199997 37.700005 64.199997 38.5 C 64.199997 39.300003 63.900002 40.099998 63.299999 40.700005 C 62.099998 41.900002 60.099998 41.900002 58.799999 40.700005 C 58.200001 40.099998 57.900002 39.300003 57.900002 38.5 C 57.799999 37.700005 58.200001 36.900002 58.799999 36.300003 Z M 33.700001 38.700005 C 33.099998 38.700005 32.5 38.200005 32.5 37.5 C 32.5 36.800003 33 36.300003 33.700001 36.300003 C 34.299999 36.300003 34.900002 36.800003 34.900002 37.5 C 34.900002 38.200005 34.299999 38.700005 33.700001 38.700005 Z M 30.700001 56.299999 C 30.299999 57.099998 29.6 57.599998 28.799999 57.899998 C 27.1 58.399998 25.299999 57.5 24.799999 55.799999 C 24.5 55 24.6 54.200001 25 53.399998 C 25.4 52.599998 26.1 52.099998 26.9 51.799999 C 27.200001 51.700001 27.5 51.700001 27.799999 51.700001 C 29.1 51.700001 30.4 52.599998 30.799999 53.899998 C 31.1 54.700001 31.1 55.5 30.700001 56.299999 Z M 43.900002 63.200001 C 43.900002 63.399998 43.700001 63.499996 43.599998 63.600002 C 43.299999 63.799999 42.900002 63.700001 42.700001 63.299999 C 42.599998 63.099998 42.599998 63 42.599998 62.799999 C 42.599998 62.599998 42.799999 62.5 42.900002 62.399998 C 43 62.299999 43.099998 62.299999 43.200001 62.299999 C 43.400002 62.299999 43.700001 62.399998 43.799999 62.599998 C 44 62.899998 44 63 43.900002 63.200001 Z M 44.299999 22.699997 C 44.299999 21 45.700001 19.599998 47.5 19.599998 C 49.200001 19.599998 50.700001 21 50.700001 22.699997 C 50.700001 24.400002 49.299999 25.800003 47.5 25.800003 C 45.700001 25.900002 44.299999 24.400002 44.299999 22.699997 Z M 47.299999 55.5 C 43.900002 55.5 41.099998 52.799999 41.099998 49.399998 C 41.099998 46 43.900002 43.299999 47.299999 43.299999 C 50.700001 43.299999 53.5 46 53.5 49.399998 C 53.5 52.799999 50.700001 55.5 47.299999 55.5 Z M 62.5 67.300003 C 61.599998 67.300003 60.799999 66.600006 60.799999 65.699997 C 60.799999 64.800003 61.5 64.100006 62.5 64.100006 C 63.5 64.100006 64.199997 64.800003 64.199997 65.699997 C 64.099998 66.5 63.400002 67.300003 62.5 67.300003 Z"/>
</svg>
