<?xml version="1.0" encoding="UTF-8"?>
<!-- Generated by Pixelmator Pro 3.6.13 -->
<svg width="95" height="107" viewBox="0 0 95 107" xmlns="http://www.w3.org/2000/svg">
    <g id="Group">
        <path id="Path" fill="#092e3d" stroke="none" d="M 27.1 107 C 26.299999 107 25.6 106.700005 25.1 106.200005 C 24.5 105.600006 24.299999 104.700005 24.5 103.900002 L 27.700001 91.200005 C 8.5 82.100006 -2.6 61.299999 0.5 40.099998 C 3.6 19 21.200001 2 42.400002 -0.400002 C 56.200001 -1.900002 69.400002 2.300003 79.699997 11.400002 C 89.900002 20.5 95.800003 33.599998 95.800003 47.399998 C 95.800003 59.299999 91.400002 70.800003 83.5 79.600006 C 83 80.300003 68.699997 97.900002 27.799999 106.900002 L 27.799999 106.900002 C 27.5 106.900002 27.299999 107 27.1 107 Z"/>
    </g>
    <path id="path1" fill="#ffffff" stroke="none" d="M 35.200001 52.700001 C 34.799999 52.899998 34.599998 53.5 34.900002 53.899998 C 35.099998 54.299999 35.700001 54.5 36.099998 54.200001 C 36.5 54 36.700001 53.399998 36.400002 53 C 36.200001 52.700001 35.900002 52.599998 35.599998 52.599998 C 35.400002 52.599998 35.299999 52.700001 35.200001 52.700001"/>
    <path id="path2" fill="#ffffff" stroke="none" d="M 41.700001 67.699997 C 41.700001 67.699997 41.700001 67.699997 41.700001 67.699997 M 41.700001 67.699997 C 41.700001 67.699997 41.700001 67.699997 41.700001 67.699997 C 41.700001 67.699997 41.700001 67.699997 41.700001 67.699997 M 41.700001 67.699997 L 41.700001 67.699997 L 41.700001 67.699997 M 38.200001 69.699997 L 33.099998 60.899998 L 36.599998 58.899998 C 41.200001 66.800003 41.599998 67.600006 41.700001 67.699997 C 41.700001 67.699997 41.700001 67.699997 41.700001 67.699997 C 41.700001 67.699997 41.700001 67.699997 41.700001 67.699997 C 42.299999 68.699997 41.900002 69.899994 41 70.5 C 40.700001 70.699997 40.299999 70.800003 40 70.800003 C 39.299999 70.800003 38.599998 70.399994 38.200001 69.699997 M 38.400002 57.899998 L 40.200001 56.899998 L 41.200001 58.700001 L 39.400002 59.700001 L 38.400002 57.899998 Z M 24.299999 57.799999 C 23.9 57 23.6 56.200001 23.6 55.299999 C 23.6 53.5 24.6 51.799999 26.1 50.899998 L 34 46.299999 L 39.099998 55.099998 L 31.200001 59.700001 C 30.4 60.200001 29.5 60.399998 28.700001 60.399998 C 27 60.399998 25.200001 59.5 24.299999 57.799999 M 57.099998 35.900002 L 59.400002 35.800003 L 60.799999 38.200005 L 59.5 40.099998 L 57.099998 35.900002 Z M 35.700001 45 L 47 30.599998 L 58.700001 50.899998 L 41 54.399998 L 35.700001 45 Z M 48.400002 28.800003 C 48.700001 28.5 48.700001 28.400002 48.700001 28.300003 C 49 27.900002 49.400002 27.800003 49.599998 27.800003 C 49.799999 27.800003 50.200001 27.900002 50.5 28.300003 L 62.299999 48.700001 C 62.700001 49.399998 62.200001 50.200001 61.400002 50.200001 C 61.299999 50.200001 61.200001 50.200001 60.799999 50.299999 L 48.400002 28.800003 Z M 49.599998 25.900002 C 48.599998 25.900002 47.599998 26.400002 47 27.300003 L 33.799999 44.200001 L 25.200001 49.200001 C 21.799999 51.200001 20.6 55.5 22.6 58.899998 C 24.4 62 28.200001 63.200001 31.4 61.899998 L 36.5 70.800003 C 37.599998 72.699997 40.099998 73.399994 42 72.300003 C 43.900002 71.199997 44.599998 68.699997 43.5 66.800003 L 40.5 61.5 L 43.099998 60 C 43.599998 59.700001 43.799999 59.099998 43.5 58.599998 L 42.200001 56.299999 C 42.400002 56.299999 43.400002 56.099998 61.700001 52.5 C 64 52.399998 65.300003 49.899998 64.199997 47.899998 L 60.799999 42.099998 L 63 38.800003 C 63.200001 38.5 63.200001 38.099998 63 37.700005 L 61 34.200005 C 60.799999 33.900002 60.400002 33.700005 60.099998 33.700005 L 56 33.900002 L 52.299999 27.400002 C 51.700001 26.5 50.700001 25.900002 49.599998 25.900002 C 49.599998 25.900002 49.599998 25.900002 49.599998 25.900002"/>
    <path id="path3" fill="#ffffff" stroke="none" d="M 30.9 55.399998 L 29 56.200001 C 28.5 56.399998 27.799999 56.299999 27.5 55.899998 C 27.200001 55.5 26.5 55.399998 26 55.599998 C 25.5 55.799999 25.299999 56.299999 25.6 56.700001 C 26.5 57.799999 28.5 58.299999 30 57.599998 L 31.9 56.799999 C 32.400002 56.599998 32.599998 56.099998 32.299999 55.700001 C 32.099998 55.399998 31.700001 55.299999 31.4 55.299999 C 31.299999 55.200001 31.1 55.299999 30.9 55.399998"/>
    <path id="path4" fill="#ffffff" stroke="none" d="M 72.099998 28.699997 C 71.5 29 66.199997 31.900002 66.199997 31.900002 C 65.699997 32.200005 65.5 32.800003 65.800003 33.300003 C 66.099998 33.800003 66.699997 34 67.199997 33.700005 C 67.199997 33.700005 72.5 30.800003 73 30.599998 C 73.5 30.300003 73.800003 29.699997 73.599998 29.199997 C 73.400002 28.599998 72.699997 28.400002 72.099998 28.699997 Z"/>
    <path id="path5" fill="#ffffff" stroke="none" d="M 63.5 22.900002 C 63.299999 23.5 61.599998 29.300003 61.599998 29.300003 C 61.400002 29.800003 61.700001 30.400002 62.299999 30.599998 C 62.799999 30.800003 63.400002 30.400002 63.599998 29.900002 C 63.599998 29.900002 65.300003 24.099998 65.5 23.599998 C 65.699997 23.099998 65.400002 22.400002 64.900002 22.199997 C 64.400002 22 63.700001 22.300003 63.5 22.900002 Z"/>
    <path id="path6" fill="#ffffff" stroke="none" d="M 74.199997 38.800003 C 73.599998 38.599998 67.800003 36.900002 67.800003 36.900002 C 67.300003 36.700005 66.699997 37 66.5 37.599998 C 66.300003 38.099998 66.699997 38.700005 67.199997 38.900002 C 67.199997 38.900002 73 40.599998 73.5 40.800003 C 74 41 74.699997 40.700005 74.900002 40.200005 C 75.099998 39.599998 74.800003 39 74.199997 38.800003 Z"/>
</svg>
