<?xml version="1.0" encoding="UTF-8"?>
<!-- Generated by Pixelmator Pro 3.6.13 -->
<svg width="98" height="110" viewBox="0 0 98 110" xmlns="http://www.w3.org/2000/svg">
    <path id="Path" fill="#092e3d" stroke="none" d="M 28.700001 108.5 C 27.9 108.5 27.200001 108.200005 26.700001 107.700005 C 26.1 107.100006 25.9 106.200005 26.1 105.400002 L 29.299999 92.699997 C 10.1 83.699997 -1 62.899998 2.1 41.700005 C 5.2 20.5 22.799999 3.5 43.900002 1.099998 C 49.200001 0.5 54.5 0.800003 59.599998 1.900002 C 81.400002 6.699997 97.300003 26.5 97.300003 48.899998 C 97.300003 60.799999 92.900002 72.300003 85 81.100006 C 84.5 81.800003 70.199997 99.400002 29.299999 108.400002 L 29.299999 108.400002 C 29.1 108.5 28.9 108.5 28.700001 108.5 Z"/>
    <path id="path1" fill="#ffffff" stroke="none" d="M 41.900002 60.200001 C 41.200001 60.200001 40.700001 60.700001 40.700001 61.399998 C 40.700001 62.099998 41.200001 62.599998 41.900002 62.599998 L 49.200001 62.599998 C 49.900002 62.599998 50.400002 62.099998 50.400002 61.399998 C 50.400002 60.700001 49.900002 60.200001 49.200001 60.200001 L 41.900002 60.200001 Z M 41.900002 55.399998 C 41.200001 55.399998 40.700001 55.899998 40.700001 56.599998 C 40.700001 57.299999 41.200001 57.799999 41.900002 57.799999 L 49.200001 57.799999 C 49.900002 57.799999 50.400002 57.299999 50.400002 56.599998 C 50.400002 55.899998 49.900002 55.399998 49.200001 55.399998 L 41.900002 55.399998 Z M 55.200001 57.799999 L 60.099998 57.799999 L 60.099998 60.700001 L 55.200001 60.700001 L 55.200001 57.799999 Z M 54 55.399998 C 53.299999 55.399998 52.799999 55.899998 52.799999 56.599998 L 52.799999 62 C 52.799999 62.700001 53.299999 63.200001 54 63.200001 L 61.299999 63.200001 C 62 63.200001 62.5 62.700001 62.5 62 L 62.5 56.599998 C 62.5 55.899998 62 55.399998 61.299999 55.399998 L 54 55.399998 Z M 42.299999 50.5 C 41.599998 50.5 41.099998 51 41.099998 51.700001 C 41.099998 52.399998 41.599998 52.899998 42.299999 52.899998 L 61.299999 52.899998 C 62 52.899998 62.5 52.399998 62.5 51.700001 C 62.5 51 62 50.5 61.299999 50.5 L 42.299999 50.5 Z M 56.5 45.200005 C 55.799999 45.200005 55.299999 45.700005 55.299999 46.399998 C 55.299999 47.099998 55.799999 47.599998 56.5 47.599998 L 61.400002 47.599998 C 62.099998 47.599998 62.599998 47.099998 62.599998 46.399998 C 62.599998 45.700005 62.099998 45.200005 61.400002 45.200005 L 56.5 45.200005 Z M 56.5 40.300003 C 55.799999 40.300003 55.299999 40.800003 55.299999 41.5 C 55.299999 42.200005 55.799999 42.700005 56.5 42.700005 L 61.400002 42.700005 C 62.099998 42.700005 62.599998 42.200005 62.599998 41.5 C 62.599998 40.800003 62.099998 40.300003 61.400002 40.300003 L 56.5 40.300003 Z M 56.5 35.5 C 55.799999 35.5 55.299999 36 55.299999 36.700005 C 55.299999 37.400002 55.799999 37.900002 56.5 37.900002 L 61.400002 37.900002 C 62.099998 37.900002 62.599998 37.400002 62.599998 36.700005 C 62.599998 36 62.099998 35.5 61.400002 35.5 L 56.5 35.5 Z M 43.099998 37.400002 L 50.400002 37.400002 L 50.400002 45.599998 L 43.099998 45.599998 L 43.099998 37.400002 Z M 41.900002 35 C 41.200001 35 40.700001 35.5 40.700001 36.200005 L 40.700001 46.899998 C 40.700001 47.599998 41.200001 48.099998 41.900002 48.099998 L 51.599998 48.099998 C 52.299999 48.099998 52.799999 47.599998 52.799999 46.899998 L 52.799999 36.200005 C 52.799999 35.5 52.299999 35 51.599998 35 L 41.900002 35 Z M 31.9 63.799999 L 31.9 38.400002 L 35.299999 38.400002 L 35.299999 63.799999 C 35.299999 64.800003 34.5 65.600006 33.599998 65.600006 C 32.700001 65.600006 31.9 64.800003 31.9 63.799999 M 37.400002 65.199997 C 37.599998 64.699997 37.700001 64.300003 37.700001 63.799999 L 37.700001 32.099998 L 65.5 32.099998 L 65.5 63.799999 C 65.5 64.800003 64.699997 65.600006 63.700001 65.600006 L 37.200001 65.600006 C 37.299999 65.399994 37.400002 65.300003 37.400002 65.199997 M 36.700001 29.699997 C 36 29.699997 35.5 30.199997 35.5 30.900002 L 35.5 36.300003 L 30.700001 36.300003 C 30 36.300003 29.5 36.800003 29.5 37.5 L 29.5 63.899998 C 29.6 66.100006 31.200001 67.899994 33.5 68.100006 L 33.700001 68.100006 L 63.700001 68.100006 C 66 68.100006 67.900002 66.199997 67.900002 63.899998 L 67.900002 30.900002 C 67.900002 30.199997 67.400002 29.699997 66.699997 29.699997 L 36.700001 29.699997 Z"/>
</svg>
